# xmcd
#
# Track frame offsets: 
#        150
#        14576
#        28653
#        44879
#
# Disc length: 832 seconds
#
# Revision: 0
# Processed by: cddbd v1.5.2PL0 Copyright (c) Steve Scherf et al.
# Submitted via: ExactAudioCopyFreeDBPlugin 1.0
#
DISCID=33033e04
DTITLE=Audrey et les Faces B - En Démo
DYEAR=2008
DGENRE=Swing
TTITLE0=Undecided
TTITLE1=Up Above My Head
TTITLE2=I've Got The Blues When It Rains
TTITLE3=Exactly Like You
EXTD=
EXTT0=
EXTT1=
EXTT2=
EXTT3=
PLAYORDER=
